<svg width="23" height="149" viewBox="0 0 23 149" fill="none" xmlns="http://www.w3.org/2000/svg">
<path d="M18.8339 136.446L18.8637 138.661L13.1777 138.737L13.2547 144.458L18.9407 144.382L18.9706 146.605L6.17487 146.777L6.14496 144.554L11.4706 144.482L11.3937 138.761L6.06799 138.833L6.0382 136.618L18.8339 136.446ZM18.9207 129.826C18.9389 131.179 18.5289 132.284 17.6907 133.139C16.8466 133.988 15.7156 134.422 14.2978 134.441L14.0341 134.445C13.085 134.458 12.2359 134.287 11.487 133.934C10.7321 133.575 10.1422 133.067 9.71729 132.411C9.29241 131.755 9.07449 131.019 9.06353 130.205C9.04611 128.91 9.44572 127.906 10.2624 127.191C11.0789 126.471 12.243 126.101 13.7546 126.081L14.6158 126.069L14.6994 132.282C15.4836 132.207 16.1012 131.938 16.552 131.475C17.0028 131.006 17.2235 130.423 17.2141 129.726C17.2009 128.748 16.7947 127.956 15.9955 127.352L17.0785 126.185C17.652 126.559 18.1012 127.062 18.4261 127.697C18.7452 128.325 18.91 129.035 18.9207 129.826ZM10.7774 130.191C10.7852 130.776 10.9967 131.248 11.4117 131.606C11.8266 131.958 12.4009 132.179 13.1346 132.268L13.0799 128.199L12.9217 128.202C12.2076 128.258 11.6711 128.456 11.3123 128.795C10.9477 129.133 10.7694 129.599 10.7774 130.191ZM18.6406 122.077L18.6693 124.213L5.17057 124.394L5.14184 122.259L18.6406 122.077ZM18.5787 117.472L18.6074 119.608L5.10861 119.789L5.07988 117.654L18.5787 117.472ZM13.7103 115.604C12.7788 115.616 11.9385 115.443 11.1894 115.084C10.4345 114.725 9.85338 114.214 9.446 113.552C9.03275 112.889 8.8203 112.124 8.80863 111.257C8.79137 109.974 9.19043 108.929 10.0058 108.121C10.8211 107.307 11.9109 106.859 13.2751 106.776L13.7759 106.76C14.7133 106.748 15.5536 106.918 16.2967 107.271C17.0397 107.619 17.6179 108.127 18.0312 108.795C18.4445 109.458 18.657 110.228 18.6688 111.107C18.6869 112.449 18.2561 113.53 17.3764 114.35C16.4908 115.165 15.3039 115.582 13.8158 115.602L13.7103 115.604ZM13.8661 113.466C14.8446 113.453 15.6094 113.24 16.1605 112.828C16.7058 112.417 16.9736 111.851 16.9639 111.13C16.9542 110.409 16.6655 109.854 16.0977 109.463C15.5298 109.066 14.7039 108.875 13.62 108.89C12.6591 108.903 11.9003 109.121 11.3434 109.544C10.7865 109.962 10.5128 110.525 10.5223 111.234C10.5317 111.931 10.8175 112.481 11.3796 112.884C11.9358 113.287 12.7647 113.481 13.8661 113.466ZM15.0476 90.2095L5.38913 88.3706L5.35945 86.1647L18.1949 88.9454L18.2235 91.0722L8.91433 93.6322L18.2897 95.9936L18.3184 98.1292L5.56245 101.254L5.53278 99.0483L15.1204 96.9328L5.47319 94.619L5.44812 92.7559L15.0476 90.2095ZM13.3029 85.3195C12.3713 85.332 11.5311 85.1587 10.782 84.7996C10.0271 84.4406 9.44597 83.9298 9.03859 83.2673C8.62534 82.6048 8.41288 81.84 8.40122 80.9729C8.38396 79.6898 8.78302 78.6443 9.59839 77.8364C10.4137 77.0226 11.5035 76.5743 12.8677 76.4915L13.3685 76.476C14.3059 76.4634 15.1462 76.6338 15.8893 76.9871C16.6323 77.3345 17.2105 77.8424 17.6238 78.5108C18.0371 79.1732 18.2496 79.9439 18.2614 80.8227C18.2795 82.1644 17.8487 83.2455 16.969 84.066C16.0834 84.8807 14.8965 85.2981 13.4084 85.3181L13.3029 85.3195ZM13.4587 83.1815C14.4372 83.1683 15.2019 82.9558 15.7531 82.5441C16.2984 82.1324 16.5662 81.5663 16.5565 80.8456C16.5468 80.125 16.258 79.5693 15.6902 79.1784C15.1224 78.7817 14.2965 78.5907 13.2126 78.6053C12.2517 78.6182 11.4929 78.8364 10.936 79.26C10.3791 79.6776 10.1054 80.2409 10.1149 80.9499C10.1243 81.6471 10.4101 82.197 10.9722 82.5996C11.5284 83.0023 12.3573 83.1963 13.4587 83.1815ZM10.3771 69.7305C10.334 70.0123 10.3145 70.3027 10.3185 70.6015C10.3317 71.5799 10.7155 72.234 11.47 72.5637L17.9733 72.4762L18.0021 74.6118L8.49316 74.7397L8.46573 72.7008L9.5284 72.6338C8.69537 72.1293 8.27271 71.4201 8.26041 70.5061C8.25631 70.2014 8.29393 69.949 8.37328 69.7487L10.3771 69.7305ZM17.8863 66.008L17.9151 68.1436L4.41627 68.3252L4.38754 66.1896L17.8863 66.008ZM13.0356 64.1395C11.5708 64.1592 10.3916 63.8352 9.49774 63.1675C8.59806 62.4999 8.14053 61.5948 8.12516 60.4523C8.1116 59.4446 8.45218 58.6255 9.14688 57.995L4.27818 58.0605L4.24945 55.9249L17.7482 55.7433L17.7742 57.6768L16.7914 57.7955C17.5733 58.4237 17.9715 59.2709 17.9858 60.3372C18.0008 61.4504 17.5647 62.3587 16.6776 63.0621C15.7905 63.7597 14.5764 64.1188 13.0356 64.1395ZM13.1914 62.0015C14.1581 61.9885 14.9114 61.7938 15.4513 61.4173C15.9853 61.0351 16.2476 60.5013 16.2384 59.8158C16.2267 58.9428 15.8285 58.3094 15.0438 57.9157L10.9836 57.9703C10.2273 58.3731 9.85495 59.011 9.86669 59.8839C9.87599 60.5753 10.1585 61.1047 10.7143 61.4723C11.2642 61.8399 12.0899 62.0163 13.1914 62.0015Z" fill="#D0CACA"/>
<line x1="10.0225" y1="38.9772" x2="10.5113" y2="0.967175" stroke="#D0CACA" stroke-width="3"/>
</svg>
