<svg width="63" height="36" viewBox="0 0 63 36" fill="none" xmlns="http://www.w3.org/2000/svg">
<path d="M28.7031 18.8281C28.7031 22.1719 28.125 25.1094 26.9688 27.6406C25.8125 30.1562 24.1562 32.0938 22 33.4531C19.8594 34.7969 17.3906 35.4688 14.5938 35.4688C11.8281 35.4688 9.35938 34.7969 7.1875 33.4531C5.03125 32.0938 3.35938 30.1641 2.17188 27.6641C1 25.1641 0.40625 22.2812 0.390625 19.0156V17.0938C0.390625 13.7656 0.976562 10.8281 2.14844 8.28125C3.33594 5.73437 5 3.78906 7.14062 2.44531C9.29688 1.08594 11.7656 0.40625 14.5469 0.40625C17.3281 0.40625 19.7891 1.07813 21.9297 2.42188C24.0859 3.75 25.75 5.67188 26.9219 8.1875C28.0938 10.6875 28.6875 13.6016 28.7031 16.9297V18.8281ZM22.7734 17.0469C22.7734 13.2656 22.0547 10.3672 20.6172 8.35156C19.1953 6.33594 17.1719 5.32812 14.5469 5.32812C11.9844 5.32812 9.97656 6.33594 8.52344 8.35156C7.08594 10.3516 6.35156 13.1875 6.32031 16.8594V18.8281C6.32031 22.5781 7.04688 25.4766 8.5 27.5234C9.96875 29.5703 12 30.5938 14.5938 30.5938C17.2188 30.5938 19.2344 29.5938 20.6406 27.5938C22.0625 25.5938 22.7734 22.6719 22.7734 18.8281V17.0469ZM53.1953 27.0547H39.9766L37.2109 35H31.0469L43.9375 0.875H49.2578L62.1719 35H55.9844L53.1953 27.0547ZM41.6406 22.2734H51.5312L46.5859 8.11719L41.6406 22.2734Z" fill="#5FB391"/>
</svg>
